<?xml version="1.0" encoding="UTF-8"?>
<svg id="Layer_1" data-name="Layer 1" xmlns="http://www.w3.org/2000/svg" version="1.1" xmlns:xlink="http://www.w3.org/1999/xlink" viewBox="0 0 574.52 58.88">
  <defs>
    <style>
      .cls-1 {
        fill: url(#linear-gradient);
      }

      .cls-1, .cls-2 {
        stroke-width: 0px;
      }

      .cls-2 {
        fill: #000;
      }

      <!-- =========  custom css ========= -->

      
    </style>
    <linearGradient id="linear-gradient" x1="285.74" y1="-187.52" x2="289.64" y2="366.99" gradientUnits="userSpaceOnUse">
      <stop offset=".3" stop-color="#ee2c7b"/>
      <stop offset=".37" stop-color="#f15259"/>
      <stop offset=".48" stop-color="#f79520"/>
    </linearGradient>
  </defs>
  <g>
    <path class="cls-2" d="M13.56,58.88c-3.55,0-6.74-1.17-9.23-3.39-2.79-2.48-4.33-5.98-4.33-9.85v-27.11C0,11.89,2.86,7.75,5.25,5.44,7.57,3.21,11.72.54,18.26.54h9.13c7.77,0,14.06,1.88,18.71,5.58,3.67,2.92,8.03,8.39,8.03,17.81s-4.26,14.81-7.83,17.73c-4.59,3.76-10.85,5.66-18.59,5.66h-.63c-.39,3.16-1.86,6-4.24,8.13-2.52,2.24-5.72,3.43-9.28,3.43Z"/>
    <path class="cls-2" d="M10.97,48.02c-.65-.58-.97-1.37-.97-2.38v-27.11c0-2.52.73-4.48,2.19-5.89,1.46-1.4,3.48-2.11,6.08-2.11h9.13c5.47,0,9.63,1.13,12.47,3.4,2.84,2.27,4.27,5.6,4.27,9.99s-1.39,7.72-4.16,9.99c-2.77,2.27-6.86,3.4-12.26,3.4h-10.53v8.32c0,.97-.33,1.76-1,2.35-.67.59-1.54.89-2.62.89s-1.94-.29-2.59-.86ZM36.89,23.93c0-5.22-3.08-7.83-9.23-7.83h-8.15c-.72,0-1.29.23-1.7.7-.41.47-.62,1.12-.62,1.94v13.01h10.48c6.16,0,9.23-2.61,9.23-7.83Z"/>
    <path class="cls-2" d="M58.28,58.34c-6.7,0-10.91-2.68-13.27-4.92-2.45-2.33-5.37-6.53-5.37-13.29v-21.6c0-6.64,2.86-10.78,5.25-13.09,2.32-2.24,6.46-4.9,13.01-4.9h16.79c4.36,0,7.27,1.68,8.93,3.09,2.85,2.4,4.41,5.85,4.41,9.72s-1.62,7.36-4.56,9.76c-.21.17-.44.35-.7.53.75,1.65,1.15,3.48,1.15,5.42s-.4,3.76-1.16,5.4c.81.45,1.49.94,2.03,1.4,2.85,2.41,4.42,5.86,4.42,9.72s-1.62,7.36-4.56,9.76c-1.67,1.37-4.55,2.99-8.79,2.99h-17.6Z"/>
    <path class="cls-2" d="M51.9,46.18c-1.51-1.44-2.27-3.46-2.27-6.05v-21.6c0-2.52.73-4.48,2.19-5.89,1.46-1.4,3.48-2.11,6.08-2.11h16.79c1.08,0,1.91.24,2.48.73.58.49.86,1.18.86,2.08s-.3,1.54-.89,2.03c-.59.49-1.41.73-2.46.73h-15.55c-.72,0-1.29.23-1.7.7-.41.47-.62,1.12-.62,1.94v7.51h13.77c1.08,0,1.91.24,2.48.73.58.49.86,1.18.86,2.08s-.3,1.54-.89,2.02c-.59.49-1.41.73-2.46.73h-13.77v8.32c0,.83.21,1.48.62,1.94.41.47.98.7,1.7.7h16.74c1.08,0,1.91.24,2.48.73.58.49.86,1.18.86,2.08s-.3,1.54-.89,2.02c-.59.49-1.41.73-2.46.73h-17.6c-2.74,0-4.86-.72-6.37-2.16Z"/>
    <path class="cls-2" d="M114.81,58.83c-3.56,0-6.76-1.19-9.28-3.43-2.17-1.94-3.59-4.47-4.11-7.31-.52,2.83-1.94,5.37-4.12,7.31-2.52,2.24-5.72,3.43-9.28,3.43s-6.73-1.17-9.23-3.38c-2.8-2.49-4.34-5.99-4.34-9.86v-18.9c0-9.93,4.05-16.01,7.46-19.37,4.91-4.85,11.47-7.31,19.5-7.31,5.1,0,9.71,1.05,13.69,3.13,4.36,2.27,7.74,5.61,10.05,9.93,2.13,3.97,3.21,8.56,3.21,13.63v18.9c0,3.87-1.54,7.37-4.33,9.85-2.5,2.22-5.7,3.39-9.24,3.39Z"/>
    <path class="cls-2" d="M85.44,47.96c-.65-.58-.97-1.37-.97-2.38v-18.9c0-5.22,1.49-9.31,4.48-12.26,2.99-2.95,7.15-4.43,12.47-4.43,3.49,0,6.52.67,9.07,2,2.56,1.33,4.51,3.26,5.86,5.78,1.35,2.52,2.03,5.49,2.03,8.91v18.9c0,1.01-.32,1.8-.97,2.38-.65.58-1.51.86-2.59.86s-1.95-.3-2.62-.89c-.67-.59-1-1.38-1-2.35v-8.8h-19.55v8.8c0,.97-.33,1.75-1,2.35-.67.59-1.54.89-2.62.89s-1.94-.29-2.59-.86ZM111.2,31.22v-4.7c0-3.6-.82-6.31-2.46-8.13-1.64-1.82-4.08-2.73-7.32-2.73-6.52,0-9.77,3.62-9.77,10.85v4.7h19.55Z"/>
    <path class="cls-2" d="M143.43,58.88c-5.67,0-10.77-1.16-15.19-3.44-4.78-2.48-8.5-6.11-11.05-10.8-2.38-4.38-3.59-9.47-3.59-15.14s1.2-10.75,3.58-15.15c2.53-4.69,6.22-8.34,10.97-10.84,4.41-2.32,9.51-3.5,15.17-3.5,4.62,0,9.01.83,13.04,2.46,4.58,1.86,8.16,4.53,10.64,7.95,1.69,2.29,2.58,4.94,2.58,7.69,0,4.12-1.96,7.84-5.51,10.47-.25.19-.52.37-.78.54.73.39,1.44.85,2.1,1.38l.16.13.16.14c3.02,2.62,4.68,6.15,4.68,9.92,0,2.85-.95,5.6-2.76,7.96l-.07.08c-2.66,3.41-6.32,6.03-10.86,7.8-4.01,1.56-8.48,2.36-13.27,2.36ZM143.33,25.67c-.24,0-1.46.02-1.76.35-.35.38-.71,1.5-.71,3.47s.35,2.97.69,3.33,1.64.38,1.89.38c2.7,0,3.52-.81,3.83-1.11l.19-.18c1.01-.95,2.02-1.69,3-2.28-1.73-.82-3.24-1.98-4.49-3.43-.13-.15-.24-.24-.32-.27-.06-.03-.73-.26-2.31-.26Z"/>
    <path class="cls-2" d="M132.85,46.56c-2.99-1.55-5.27-3.78-6.86-6.7-1.58-2.92-2.38-6.37-2.38-10.37s.79-7.46,2.38-10.4c1.58-2.93,3.86-5.18,6.83-6.75,2.97-1.57,6.47-2.35,10.5-2.35,3.35,0,6.44.58,9.29,1.73,2.84,1.15,4.95,2.68,6.32,4.59.43.58.65,1.17.65,1.78,0,.9-.49,1.71-1.46,2.43-.43.32-.97.49-1.62.49-.54,0-1.08-.12-1.62-.35-.54-.23-.99-.57-1.35-1-1.22-1.4-2.65-2.42-4.27-3.05-1.62-.63-3.6-.94-5.94-.94-3.92,0-6.99,1.21-9.18,3.65-2.2,2.43-3.29,5.82-3.29,10.18s1.11,7.69,3.32,10.1c2.21,2.41,5.3,3.62,9.26,3.62,4.54,0,8.15-1.33,10.85-4,1.12-1.04,2.14-1.57,3.08-1.57.65,0,1.24.22,1.78.65.83.72,1.24,1.51,1.24,2.38,0,.65-.23,1.28-.7,1.89-1.55,1.98-3.75,3.53-6.61,4.64-2.86,1.12-6.08,1.67-9.64,1.67-4.07,0-7.6-.77-10.58-2.32Z"/>
    <path class="cls-2" d="M196.08,58.88c-3.55,0-6.76-1.19-9.28-3.43-2.07-1.85-3.45-4.23-4.03-6.9-.58,2.67-1.96,5.06-4.04,6.91-2.52,2.24-5.72,3.43-9.27,3.43s-6.74-1.17-9.24-3.39c-2.79-2.47-4.33-5.97-4.33-9.85V13.24c0-3.87,1.54-7.37,4.33-9.85,2.5-2.22,5.69-3.39,9.23-3.39s6.75,1.18,9.27,3.42c2.08,1.85,3.46,4.24,4.04,6.91.58-2.67,1.96-5.06,4.03-6.91,2.52-2.24,5.72-3.43,9.28-3.43s6.74,1.17,9.23,3.39c2.79,2.48,4.33,5.98,4.33,9.85v32.4c0,3.88-1.54,7.38-4.34,9.86-2.49,2.21-5.68,3.38-9.23,3.38Z"/>
    <path class="cls-2" d="M166.87,48.02c-.65-.58-.97-1.37-.97-2.38V13.24c0-1.01.32-1.8.97-2.38.65-.58,1.51-.86,2.59-.86s1.95.3,2.62.89c.67.59,1,1.38,1,2.35v12.91h19.39v-12.91c0-.97.33-1.75,1-2.35.67-.59,1.54-.89,2.62-.89s1.94.29,2.59.86c.65.58.97,1.37.97,2.38v32.4c0,1.01-.32,1.8-.97,2.38-.65.58-1.51.86-2.59.86s-1.95-.3-2.62-.89c-.67-.59-1-1.38-1-2.35v-13.93h-19.39v13.93c0,.97-.33,1.76-1,2.35-.67.59-1.54.89-2.62.89s-1.94-.29-2.59-.86Z"/>
    <path class="cls-2" d="M223.73,58.88c-3.55,0-6.74-1.17-9.24-3.39-2.79-2.47-4.33-5.97-4.33-9.85v-27.11c0-6.64,2.86-10.78,5.25-13.09,2.32-2.24,6.46-4.9,13.01-4.9h9.61c7.58,0,13.71,1.74,18.21,5.18,3.67,2.8,8.04,8.07,8.04,17.29,0,7.52-2.9,12.43-5.67,15.39,1.44,2.15,2.22,4.65,2.22,7.23,0,3.8-1.65,7.31-4.63,9.87l-.19.16-.2.15c-3.21,2.48-6.36,3-8.44,3-3.78,0-7.35-1.59-10.09-4.49l-1.8-1.85c-.72,1.18-1.63,2.26-2.73,3.18-2.49,2.1-5.62,3.21-9.03,3.21Z"/>
    <path class="cls-2" d="M220.17,18.53c0-2.52.73-4.48,2.19-5.89,1.46-1.4,3.48-2.11,6.08-2.11h9.61c5.36,0,9.41,1.04,12.15,3.13,2.74,2.09,4.1,5.2,4.1,9.34,0,3.85-1.14,6.86-3.43,9.02-2.29,2.16-5.35,3.24-9.21,3.24l8.21,8.15c.65.65.97,1.39.97,2.21s-.38,1.62-1.13,2.27c-.79.61-1.57.92-2.32.92-1.04,0-2-.47-2.86-1.4l-11.66-11.93h-5.51v10.15c0,1.01-.34,1.8-1.03,2.38-.68.58-1.55.86-2.59.86s-1.94-.29-2.59-.86c-.65-.58-.97-1.37-.97-2.38v-27.11ZM237.82,29.93c2.38,0,4.23-.23,5.56-.7,1.33-.47,2.28-1.2,2.83-2.19.56-.99.84-2.33.84-4.02,0-2.45-.75-4.21-2.24-5.29-1.49-1.08-3.83-1.62-6.99-1.62h-8.15c-.72,0-1.29.23-1.7.7-.41.47-.62,1.12-.62,1.94v11.18h10.48Z"/>
    <path class="cls-2" d="M289.88,58.83c-3.56,0-6.76-1.19-9.28-3.43-2.17-1.94-3.59-4.47-4.11-7.31-.52,2.83-1.94,5.37-4.12,7.31-2.52,2.24-5.72,3.43-9.28,3.43s-6.73-1.17-9.23-3.38c-2.8-2.49-4.34-5.99-4.34-9.86v-18.9c0-9.93,4.05-16.01,7.46-19.37,4.91-4.85,11.47-7.31,19.5-7.31,5.1,0,9.71,1.05,13.69,3.13,4.36,2.27,7.74,5.61,10.05,9.93,2.13,3.97,3.21,8.56,3.21,13.63v18.9c0,3.87-1.54,7.37-4.33,9.85-2.5,2.22-5.7,3.39-9.24,3.39Z"/>
    <path class="cls-2" d="M260.5,47.96c-.65-.58-.97-1.37-.97-2.38v-18.9c0-5.22,1.49-9.31,4.48-12.26,2.99-2.95,7.15-4.43,12.47-4.43,3.49,0,6.52.67,9.07,2,2.56,1.33,4.51,3.26,5.86,5.78,1.35,2.52,2.03,5.49,2.03,8.91v18.9c0,1.01-.32,1.8-.97,2.38-.65.58-1.51.86-2.59.86s-1.95-.3-2.62-.89c-.67-.59-1-1.38-1-2.35v-8.8h-19.55v8.8c0,.97-.33,1.75-1,2.35-.67.59-1.54.89-2.62.89s-1.94-.29-2.59-.86ZM286.26,31.22v-4.7c0-3.6-.82-6.31-2.46-8.13-1.64-1.82-4.08-2.73-7.32-2.73-6.52,0-9.77,3.62-9.77,10.85v4.7h19.55Z"/>
    <path class="cls-2" d="M317.48,58.88c-4.72,0-9.26-.81-13.47-2.4-4.36-1.65-8.22-4.08-11.47-7.22l-.11-.11c-2.41-2.41-3.74-5.57-3.74-8.91s1.42-6.75,4.01-9.34c.12-.11.23-.23.35-.34-2-3.09-3.06-6.68-3.06-10.52,0-4.31,1.49-8.34,4.31-11.67,2.43-2.87,5.67-5.05,9.64-6.5,3.41-1.24,7.24-1.87,11.39-1.87,4.67,0,8.98.82,12.81,2.43,4.38,1.85,7.85,4.59,10.32,8.15l.14.21.13.22c1.46,2.36,2.2,4.78,2.2,7.2v.4c-.12,2.81-1.12,5.41-2.88,7.56.31.38.6.78.88,1.18,2.22,3.24,3.35,7.01,3.35,11.22s-1.37,8.27-3.95,11.58c-2.37,3.03-5.57,5.32-9.53,6.82-3.36,1.27-7.17,1.92-11.32,1.92Z"/>
    <path class="cls-2" d="M307.54,47.13c-3.1-1.17-5.78-2.85-8.05-5.05-.54-.54-.81-1.15-.81-1.84,0-.79.36-1.55,1.08-2.27.58-.58,1.21-.86,1.89-.86.72,0,1.58.41,2.59,1.24,1.69,1.55,3.7,2.75,6.02,3.59,2.32.85,4.72,1.27,7.21,1.27s4.23-.41,5.56-1.22c1.33-.81,2-1.95,2-3.43s-.72-2.8-2.16-3.75c-1.44-.95-3.89-1.81-7.34-2.56-5.44-1.19-9.39-2.75-11.85-4.7s-3.7-4.45-3.7-7.51c0-1.94.65-3.68,1.94-5.21,1.3-1.53,3.11-2.72,5.43-3.56,2.32-.85,4.98-1.27,7.96-1.27,3.35,0,6.33.55,8.94,1.65,2.61,1.1,4.6,2.64,5.97,4.62.47.76.7,1.4.7,1.94-.04.9-.49,1.67-1.35,2.32-.47.32-1.01.49-1.62.49-1.12,0-2.03-.43-2.75-1.3-1.04-1.26-2.44-2.25-4.18-2.97-1.75-.72-3.65-1.08-5.7-1.08-2.56,0-4.55.39-5.97,1.16-1.42.77-2.13,1.85-2.13,3.21s.69,2.49,2.08,3.38c1.39.88,3.79,1.72,7.21,2.51,3.78.9,6.82,1.92,9.13,3.05,2.3,1.13,3.99,2.48,5.05,4.02,1.06,1.55,1.59,3.4,1.59,5.56s-.61,3.86-1.84,5.43c-1.22,1.57-2.95,2.77-5.18,3.62s-4.82,1.27-7.78,1.27c-3.53,0-6.84-.58-9.94-1.75Z"/>
    <path class="cls-2" d="M341.34,58.88c-3.55,0-6.74-1.17-9.24-3.39-2.79-2.47-4.33-5.97-4.33-9.85v-27.11c0-6.64,2.86-10.78,5.25-13.09,2.32-2.24,6.46-4.9,13.01-4.9h9.13c7.77,0,14.06,1.88,18.71,5.58,3.66,2.92,8.03,8.38,8.03,17.81s-4.26,14.81-7.83,17.73c-4.59,3.76-10.85,5.66-18.59,5.66h-.63c-.39,3.16-1.86,6-4.24,8.13-2.52,2.24-5.72,3.43-9.27,3.43Z"/>
    <path class="cls-2" d="M338.75,48.02c-.65-.58-.97-1.37-.97-2.38v-27.11c0-2.52.73-4.48,2.19-5.89,1.46-1.4,3.48-2.11,6.08-2.11h9.13c5.47,0,9.63,1.13,12.47,3.4s4.27,5.6,4.27,9.99-1.39,7.72-4.16,9.99c-2.77,2.27-6.86,3.4-12.26,3.4h-10.53v8.32c0,.97-.33,1.76-1,2.35-.67.59-1.54.89-2.62.89s-1.94-.29-2.59-.86ZM364.67,23.93c0-5.22-3.08-7.83-9.23-7.83h-8.15c-.72,0-1.29.23-1.7.7-.41.47-.62,1.12-.62,1.94v13.01h10.48c6.16,0,9.23-2.61,9.23-7.83Z"/>
    <path class="cls-2" d="M384.7,58.34c-6.7,0-10.92-2.68-13.27-4.92-2.45-2.33-5.37-6.53-5.37-13.29v-21.6c0-6.64,2.86-10.78,5.25-13.09,2.32-2.24,6.46-4.9,13.01-4.9h12.47c6.43,0,11.75,1.6,15.81,4.75,4.68,3.64,7.26,9.17,7.26,15.56,0,2.55-.54,5.04-1.58,7.36,1.46,2.67,2.23,5.61,2.23,8.62,0,8.21-3.75,13.22-6.89,15.97-4.19,3.67-9.63,5.53-16.17,5.53h-12.74Z"/>
    <path class="cls-2" d="M378.33,46.18c-1.51-1.44-2.27-3.46-2.27-6.05v-21.6c0-2.52.73-4.48,2.19-5.89,1.46-1.4,3.48-2.11,6.08-2.11h12.47c4.18,0,7.4.88,9.67,2.65,2.27,1.76,3.4,4.32,3.4,7.67,0,1.66-.49,3.2-1.46,4.62-.97,1.42-2.23,2.49-3.78,3.21v.05c1.73.68,3.14,1.77,4.24,3.27,1.1,1.49,1.65,3.1,1.65,4.83,0,3.6-1.16,6.42-3.48,8.45-2.32,2.03-5.52,3.05-9.58,3.05h-12.74c-2.74,0-4.86-.72-6.37-2.16ZM396.8,26.15c1.84,0,3.27-.45,4.29-1.35,1.03-.9,1.54-2.2,1.54-3.89s-.49-2.88-1.46-3.67c-.97-.79-2.43-1.19-4.37-1.19h-11.34c-.72,0-1.29.23-1.7.7-.41.47-.62,1.12-.62,1.94v7.45h13.66ZM396.8,42.83c4.32,0,6.48-1.96,6.48-5.89,0-1.69-.57-3.01-1.7-3.94-1.13-.94-2.73-1.4-4.78-1.4h-13.66v8.59c0,.83.21,1.48.62,1.94.41.47.98.7,1.7.7h11.34Z"/>
    <path class="cls-2" d="M424.66,58.34c-6.7,0-10.92-2.68-13.27-4.92-2.45-2.33-5.37-6.53-5.37-13.29v-21.6c0-6.64,2.86-10.78,5.25-13.09,2.32-2.24,6.46-4.9,13.01-4.9h16.79c4.36,0,7.26,1.68,8.93,3.08,2.85,2.41,4.42,5.86,4.42,9.73s-1.62,7.36-4.55,9.76c-.21.17-.44.35-.7.53.75,1.65,1.15,3.48,1.15,5.42s-.41,3.74-1.18,5.4c.82.45,1.5.94,2.05,1.4,2.85,2.41,4.42,5.86,4.42,9.72s-1.66,7.4-4.57,9.77c-1.66,1.36-4.54,2.98-8.78,2.98h-17.6Z"/>
    <path class="cls-2" d="M418.29,46.18c-1.51-1.44-2.27-3.46-2.27-6.05v-21.6c0-2.52.73-4.48,2.19-5.89,1.46-1.4,3.48-2.11,6.08-2.11h16.79c1.08,0,1.91.24,2.48.73.58.49.86,1.18.86,2.08s-.3,1.54-.89,2.03c-.59.49-1.41.73-2.46.73h-15.55c-.72,0-1.29.23-1.7.7-.41.47-.62,1.12-.62,1.94v7.51h13.77c1.08,0,1.91.24,2.48.73.58.49.86,1.18.86,2.08s-.3,1.54-.89,2.02c-.59.49-1.41.73-2.46.73h-13.77v8.32c0,.83.21,1.48.62,1.94.41.47.98.7,1.7.7h16.74c1.08,0,1.91.24,2.48.73.58.49.86,1.18.86,2.08s-.3,1.54-.89,2.02c-.59.49-1.41.73-2.46.73h-17.6c-2.74,0-4.86-.72-6.37-2.16Z"/>
    <path class="cls-2" d="M454.69,58.88c-3.55,0-6.74-1.17-9.24-3.39-2.79-2.47-4.33-5.97-4.33-9.85v-27.11c0-6.64,2.86-10.78,5.25-13.09,2.32-2.24,6.46-4.9,13.01-4.9h9.61c7.58,0,13.71,1.74,18.21,5.18,3.67,2.8,8.04,8.07,8.04,17.29,0,7.52-2.9,12.43-5.67,15.39,1.44,2.15,2.22,4.65,2.22,7.23,0,3.8-1.65,7.31-4.63,9.87l-.19.16-.2.15c-3.21,2.48-6.36,3-8.44,3-3.78,0-7.35-1.59-10.09-4.49l-1.8-1.85c-.72,1.18-1.63,2.26-2.73,3.18-2.49,2.1-5.62,3.21-9.03,3.21Z"/>
    <path class="cls-2" d="M451.12,18.53c0-2.52.73-4.48,2.19-5.89,1.46-1.4,3.48-2.11,6.08-2.11h9.61c5.36,0,9.41,1.04,12.15,3.13,2.74,2.09,4.1,5.2,4.1,9.34,0,3.85-1.14,6.86-3.43,9.02-2.29,2.16-5.35,3.24-9.21,3.24l8.21,8.15c.65.65.97,1.39.97,2.21s-.38,1.62-1.13,2.27c-.79.61-1.57.92-2.32.92-1.04,0-2-.47-2.86-1.4l-11.66-11.93h-5.51v10.15c0,1.01-.34,1.8-1.03,2.38-.68.58-1.55.86-2.59.86s-1.94-.29-2.59-.86c-.65-.58-.97-1.37-.97-2.38v-27.11ZM468.78,29.93c2.38,0,4.23-.23,5.56-.7,1.33-.47,2.28-1.2,2.83-2.19.56-.99.84-2.33.84-4.02,0-2.45-.75-4.21-2.24-5.29-1.49-1.08-3.83-1.62-6.99-1.62h-8.15c-.72,0-1.29.23-1.7.7-.41.47-.62,1.12-.62,1.94v11.18h10.48Z"/>
    <path class="cls-2" d="M494.32,58.88c-3.55,0-6.74-1.17-9.24-3.39-2.79-2.47-4.33-5.97-4.33-9.85v-27.11c0-6.64,2.86-10.78,5.25-13.09,2.32-2.24,6.46-4.9,13.01-4.9h9.61c7.58,0,13.71,1.74,18.21,5.18,3.67,2.8,8.04,8.07,8.04,17.29,0,7.52-2.9,12.43-5.67,15.39,1.44,2.15,2.22,4.65,2.22,7.23,0,3.8-1.65,7.31-4.63,9.87l-.19.16-.2.15c-3.21,2.48-6.36,3-8.44,3-3.78,0-7.35-1.59-10.09-4.49l-1.8-1.85c-.72,1.18-1.63,2.26-2.73,3.18-2.49,2.1-5.62,3.21-9.03,3.21Z"/>
    <path class="cls-2" d="M490.76,18.53c0-2.52.73-4.48,2.19-5.89,1.46-1.4,3.48-2.11,6.08-2.11h9.61c5.36,0,9.41,1.04,12.15,3.13,2.74,2.09,4.1,5.2,4.1,9.34,0,3.85-1.14,6.86-3.43,9.02-2.29,2.16-5.35,3.24-9.21,3.24l8.21,8.15c.65.65.97,1.39.97,2.21s-.38,1.62-1.13,2.27c-.79.61-1.57.92-2.32.92-1.04,0-2-.47-2.86-1.4l-11.66-11.93h-5.51v10.15c0,1.01-.34,1.8-1.03,2.38-.68.58-1.55.86-2.59.86s-1.94-.29-2.59-.86c-.65-.58-.97-1.37-.97-2.38v-27.11ZM508.42,29.93c2.38,0,4.23-.23,5.56-.7,1.33-.47,2.28-1.2,2.83-2.19.56-.99.84-2.33.84-4.02,0-2.45-.75-4.21-2.24-5.29-1.49-1.08-3.83-1.62-6.99-1.62h-8.15c-.72,0-1.29.23-1.7.7-.41.47-.62,1.12-.62,1.94v11.18h10.48Z"/>
    <path class="cls-2" d="M547.19,58.88c-3.54,0-6.74-1.17-9.23-3.39-2.79-2.48-4.33-5.98-4.33-9.85v-2.33c-3.09-1.57-5.77-3.72-7.93-6.4-3.87-4.8-5.84-10.85-5.84-18v-5.67c0-3.87,1.54-7.37,4.33-9.85,2.5-2.22,5.69-3.39,9.23-3.39s6.75,1.18,9.27,3.42c2.81,2.51,4.35,5.99,4.35,9.82v5.83c0,.73.06,1.26.12,1.61h.06c.06-.35.12-.87.12-1.61v-5.83c0-3.83,1.54-7.31,4.34-9.81,2.52-2.24,5.72-3.43,9.28-3.43s6.74,1.17,9.23,3.39c2.79,2.48,4.33,5.98,4.33,9.85v5.67c0,7.1-1.96,13.14-5.82,17.95-2.16,2.69-4.83,4.85-7.9,6.43v2.35c0,3.83-1.54,7.32-4.34,9.81-2.51,2.24-5.72,3.43-9.27,3.43Z"/>
    <path class="cls-2" d="M563.55,10.86c.65.58.97,1.37.97,2.38v5.67c0,4.79-1.21,8.69-3.62,11.69-2.41,3.01-5.78,4.83-10.1,5.48v9.56c0,.97-.33,1.76-1,2.35-.67.59-1.54.89-2.62.89s-1.94-.29-2.59-.86c-.65-.58-.97-1.37-.97-2.38v-9.56c-4.36-.65-7.74-2.47-10.15-5.45-2.41-2.99-3.62-6.89-3.62-11.72v-5.67c0-1.01.32-1.8.97-2.38.65-.58,1.51-.86,2.59-.86s1.95.3,2.62.89c.67.59,1,1.38,1,2.35v5.83c0,3.74.87,6.62,2.62,8.61,1.75,2,4.26,3,7.53,3s5.79-1,7.53-3c1.75-2,2.62-4.87,2.62-8.61v-5.83c0-.97.33-1.75,1-2.35.67-.59,1.54-.89,2.62-.89s1.94.29,2.59.86Z"/>
  </g>
  <path class="cls-1" d="M10.97,47.75c-.65-.58-.97-1.37-.97-2.38v-27.11c0-2.52.73-4.48,2.19-5.89,1.46-1.4,3.48-2.11,6.08-2.11h9.13c5.47,0,9.63,1.13,12.47,3.4,2.84,2.27,4.27,5.6,4.27,9.99s-1.39,7.72-4.16,9.99c-2.77,2.27-6.86,3.4-12.26,3.4h-10.53v8.32c0,.97-.33,1.76-1,2.35-.67.59-1.54.89-2.62.89s-1.94-.29-2.59-.86ZM36.89,23.66c0-5.22-3.08-7.83-9.23-7.83h-8.15c-.72,0-1.29.23-1.7.7-.41.47-.62,1.12-.62,1.94v13.01h10.48c6.16,0,9.23-2.61,9.23-7.83ZM51.9,45.91c-1.51-1.44-2.27-3.46-2.27-6.05v-21.6c0-2.52.73-4.48,2.19-5.89,1.46-1.4,3.48-2.11,6.08-2.11h16.79c1.08,0,1.91.24,2.48.73.58.49.86,1.18.86,2.08s-.3,1.54-.89,2.03c-.59.49-1.41.73-2.46.73h-15.55c-.72,0-1.29.23-1.7.7-.41.47-.62,1.12-.62,1.94v7.51h13.77c1.08,0,1.91.24,2.48.73.58.49.86,1.18.86,2.08s-.3,1.54-.89,2.02c-.59.49-1.41.73-2.46.73h-13.77v8.32c0,.83.21,1.48.62,1.94.41.47.98.7,1.7.7h16.74c1.08,0,1.91.24,2.48.73.58.49.86,1.18.86,2.08s-.3,1.54-.89,2.02c-.59.49-1.41.73-2.46.73h-17.6c-2.74,0-4.86-.72-6.37-2.16ZM85.44,47.69c-.65-.58-.97-1.37-.97-2.38v-18.9c0-5.22,1.49-9.31,4.48-12.26,2.99-2.95,7.15-4.43,12.47-4.43,3.49,0,6.52.67,9.07,2,2.56,1.33,4.51,3.26,5.86,5.78,1.35,2.52,2.03,5.49,2.03,8.91v18.9c0,1.01-.32,1.8-.97,2.38-.65.58-1.51.86-2.59.86s-1.95-.3-2.62-.89c-.67-.59-1-1.38-1-2.35v-8.8h-19.55v8.8c0,.97-.33,1.75-1,2.35-.67.59-1.54.89-2.62.89s-1.94-.29-2.59-.86ZM111.2,30.95v-4.7c0-3.6-.82-6.31-2.46-8.13-1.64-1.82-4.08-2.73-7.32-2.73-6.52,0-9.77,3.62-9.77,10.85v4.7h19.55ZM132.85,46.29c-2.99-1.55-5.27-3.78-6.86-6.7-1.58-2.92-2.38-6.37-2.38-10.37s.79-7.46,2.38-10.4c1.58-2.93,3.86-5.18,6.83-6.75,2.97-1.57,6.47-2.35,10.5-2.35,3.35,0,6.44.58,9.29,1.73,2.84,1.15,4.95,2.68,6.32,4.59.43.58.65,1.17.65,1.78,0,.9-.49,1.71-1.46,2.43-.43.32-.97.49-1.62.49-.54,0-1.08-.12-1.62-.35-.54-.23-.99-.57-1.35-1-1.22-1.4-2.65-2.42-4.27-3.05-1.62-.63-3.6-.94-5.94-.94-3.92,0-6.99,1.21-9.18,3.65-2.2,2.43-3.29,5.82-3.29,10.18s1.11,7.69,3.32,10.1c2.21,2.41,5.3,3.62,9.26,3.62,4.54,0,8.15-1.33,10.85-4,1.12-1.04,2.14-1.57,3.08-1.57.65,0,1.24.22,1.78.65.83.72,1.24,1.51,1.24,2.38,0,.65-.23,1.28-.7,1.89-1.55,1.98-3.75,3.53-6.61,4.64-2.86,1.12-6.08,1.67-9.64,1.67-4.07,0-7.6-.77-10.58-2.32ZM166.87,47.75c-.65-.58-.97-1.37-.97-2.38V12.97c0-1.01.32-1.8.97-2.38.65-.58,1.51-.86,2.59-.86s1.95.3,2.62.89c.67.59,1,1.38,1,2.35v12.91h19.39v-12.91c0-.97.33-1.75,1-2.35.67-.59,1.54-.89,2.62-.89s1.94.29,2.59.86c.65.58.97,1.37.97,2.38v32.4c0,1.01-.32,1.8-.97,2.38-.65.58-1.51.86-2.59.86s-1.95-.3-2.62-.89c-.67-.59-1-1.38-1-2.35v-13.93h-19.39v13.93c0,.97-.33,1.76-1,2.35-.67.59-1.54.89-2.62.89s-1.94-.29-2.59-.86ZM220.17,18.26c0-2.52.73-4.48,2.19-5.89,1.46-1.4,3.48-2.11,6.08-2.11h9.61c5.36,0,9.41,1.04,12.15,3.13,2.74,2.09,4.1,5.2,4.1,9.34,0,3.85-1.14,6.86-3.43,9.02-2.29,2.16-5.35,3.24-9.21,3.24l8.21,8.15c.65.65.97,1.39.97,2.21s-.38,1.62-1.13,2.27c-.79.61-1.57.92-2.32.92-1.04,0-2-.47-2.86-1.4l-11.66-11.93h-5.51v10.15c0,1.01-.34,1.8-1.03,2.38-.68.58-1.55.86-2.59.86s-1.94-.29-2.59-.86c-.65-.58-.97-1.37-.97-2.38v-27.11ZM237.82,29.66c2.38,0,4.23-.23,5.56-.7,1.33-.47,2.28-1.2,2.83-2.19.56-.99.84-2.33.84-4.02,0-2.45-.75-4.21-2.24-5.29-1.49-1.08-3.83-1.62-6.99-1.62h-8.15c-.72,0-1.29.23-1.7.7-.41.47-.62,1.12-.62,1.94v11.18h10.48ZM260.5,47.69c-.65-.58-.97-1.37-.97-2.38v-18.9c0-5.22,1.49-9.31,4.48-12.26,2.99-2.95,7.15-4.43,12.47-4.43,3.49,0,6.52.67,9.07,2,2.56,1.33,4.51,3.26,5.86,5.78,1.35,2.52,2.03,5.49,2.03,8.91v18.9c0,1.01-.32,1.8-.97,2.38-.65.58-1.51.86-2.59.86s-1.95-.3-2.62-.89c-.67-.59-1-1.38-1-2.35v-8.8h-19.55v8.8c0,.97-.33,1.75-1,2.35-.67.59-1.54.89-2.62.89s-1.94-.29-2.59-.86ZM286.26,30.95v-4.7c0-3.6-.82-6.31-2.46-8.13-1.64-1.82-4.08-2.73-7.32-2.73-6.52,0-9.77,3.62-9.77,10.85v4.7h19.55ZM307.54,46.86c-3.1-1.17-5.78-2.85-8.05-5.05-.54-.54-.81-1.15-.81-1.84,0-.79.36-1.55,1.08-2.27.58-.58,1.21-.86,1.89-.86.72,0,1.58.41,2.59,1.24,1.69,1.55,3.7,2.75,6.02,3.59,2.32.85,4.72,1.27,7.21,1.27s4.23-.41,5.56-1.22c1.33-.81,2-1.95,2-3.43s-.72-2.8-2.16-3.75c-1.44-.95-3.89-1.81-7.34-2.56-5.44-1.19-9.39-2.75-11.85-4.7s-3.7-4.45-3.7-7.51c0-1.94.65-3.68,1.94-5.21,1.3-1.53,3.11-2.72,5.43-3.56,2.32-.85,4.98-1.27,7.96-1.27,3.35,0,6.33.55,8.94,1.65,2.61,1.1,4.6,2.64,5.97,4.62.47.76.7,1.4.7,1.94-.04.9-.49,1.67-1.35,2.32-.47.32-1.01.49-1.62.49-1.12,0-2.03-.43-2.75-1.3-1.04-1.26-2.44-2.25-4.18-2.97-1.75-.72-3.65-1.08-5.7-1.08-2.56,0-4.55.39-5.97,1.16-1.42.77-2.13,1.85-2.13,3.21s.69,2.49,2.08,3.38c1.39.88,3.79,1.72,7.21,2.51,3.78.9,6.82,1.92,9.13,3.05,2.3,1.13,3.99,2.48,5.05,4.02,1.06,1.55,1.59,3.4,1.59,5.56s-.61,3.86-1.84,5.43c-1.22,1.57-2.95,2.77-5.18,3.62s-4.82,1.27-7.78,1.27c-3.53,0-6.84-.58-9.94-1.75ZM338.75,47.75c-.65-.58-.97-1.37-.97-2.38v-27.11c0-2.52.73-4.48,2.19-5.89,1.46-1.4,3.48-2.11,6.08-2.11h9.13c5.47,0,9.63,1.13,12.47,3.4s4.27,5.6,4.27,9.99-1.39,7.72-4.16,9.99c-2.77,2.27-6.86,3.4-12.26,3.4h-10.53v8.32c0,.97-.33,1.76-1,2.35-.67.59-1.54.89-2.62.89s-1.94-.29-2.59-.86ZM364.67,23.66c0-5.22-3.08-7.83-9.23-7.83h-8.15c-.72,0-1.29.23-1.7.7-.41.47-.62,1.12-.62,1.94v13.01h10.48c6.16,0,9.23-2.61,9.23-7.83ZM378.33,45.91c-1.51-1.44-2.27-3.46-2.27-6.05v-21.6c0-2.52.73-4.48,2.19-5.89,1.46-1.4,3.48-2.11,6.08-2.11h12.47c4.18,0,7.4.88,9.67,2.65,2.27,1.76,3.4,4.32,3.4,7.67,0,1.66-.49,3.2-1.46,4.62-.97,1.42-2.23,2.49-3.78,3.21v.05c1.73.68,3.14,1.77,4.24,3.27,1.1,1.49,1.65,3.1,1.65,4.83,0,3.6-1.16,6.42-3.48,8.45-2.32,2.03-5.52,3.05-9.58,3.05h-12.74c-2.74,0-4.86-.72-6.37-2.16ZM396.8,25.88c1.84,0,3.27-.45,4.29-1.35,1.03-.9,1.54-2.2,1.54-3.89s-.49-2.88-1.46-3.67c-.97-.79-2.43-1.19-4.37-1.19h-11.34c-.72,0-1.29.23-1.7.7-.41.47-.62,1.12-.62,1.94v7.45h13.66ZM396.8,42.56c4.32,0,6.48-1.96,6.48-5.89,0-1.69-.57-3.01-1.7-3.94-1.13-.94-2.73-1.4-4.78-1.4h-13.66v8.59c0,.83.21,1.48.62,1.94.41.47.98.7,1.7.7h11.34ZM418.29,45.91c-1.51-1.44-2.27-3.46-2.27-6.05v-21.6c0-2.52.73-4.48,2.19-5.89,1.46-1.4,3.48-2.11,6.08-2.11h16.79c1.08,0,1.91.24,2.48.73.58.49.86,1.18.86,2.08s-.3,1.54-.89,2.03c-.59.49-1.41.73-2.46.73h-15.55c-.72,0-1.29.23-1.7.7-.41.47-.62,1.12-.62,1.94v7.51h13.77c1.08,0,1.91.24,2.48.73.58.49.86,1.18.86,2.08s-.3,1.54-.89,2.02c-.59.49-1.41.73-2.46.73h-13.77v8.32c0,.83.21,1.48.62,1.94.41.47.98.7,1.7.7h16.74c1.08,0,1.91.24,2.48.73.58.49.86,1.18.86,2.08s-.3,1.54-.89,2.02c-.59.49-1.41.73-2.46.73h-17.6c-2.74,0-4.86-.72-6.37-2.16ZM451.12,18.26c0-2.52.73-4.48,2.19-5.89,1.46-1.4,3.48-2.11,6.08-2.11h9.61c5.36,0,9.41,1.04,12.15,3.13,2.74,2.09,4.1,5.2,4.1,9.34,0,3.85-1.14,6.86-3.43,9.02-2.29,2.16-5.35,3.24-9.21,3.24l8.21,8.15c.65.65.97,1.39.97,2.21s-.38,1.62-1.13,2.27c-.79.61-1.57.92-2.32.92-1.04,0-2-.47-2.86-1.4l-11.66-11.93h-5.51v10.15c0,1.01-.34,1.8-1.03,2.38-.68.58-1.55.86-2.59.86s-1.94-.29-2.59-.86c-.65-.58-.97-1.37-.97-2.38v-27.11ZM468.78,29.66c2.38,0,4.23-.23,5.56-.7,1.33-.47,2.28-1.2,2.83-2.19.56-.99.84-2.33.84-4.02,0-2.45-.75-4.21-2.24-5.29-1.49-1.08-3.83-1.62-6.99-1.62h-8.15c-.72,0-1.29.23-1.7.7-.41.47-.62,1.12-.62,1.94v11.18h10.48ZM490.76,18.26c0-2.52.73-4.48,2.19-5.89,1.46-1.4,3.48-2.11,6.08-2.11h9.61c5.36,0,9.41,1.04,12.15,3.13,2.74,2.09,4.1,5.2,4.1,9.34,0,3.85-1.14,6.86-3.43,9.02-2.29,2.16-5.35,3.24-9.21,3.24l8.21,8.15c.65.65.97,1.39.97,2.21s-.38,1.62-1.13,2.27c-.79.61-1.57.92-2.32.92-1.04,0-2-.47-2.86-1.4l-11.66-11.93h-5.51v10.15c0,1.01-.34,1.8-1.03,2.38-.68.58-1.55.86-2.59.86s-1.94-.29-2.59-.86c-.65-.58-.97-1.37-.97-2.38v-27.11ZM508.42,29.66c2.38,0,4.23-.23,5.56-.7,1.33-.47,2.28-1.2,2.83-2.19.56-.99.84-2.33.84-4.02,0-2.45-.75-4.21-2.24-5.29-1.49-1.08-3.83-1.62-6.99-1.62h-8.15c-.72,0-1.29.23-1.7.7-.41.47-.62,1.12-.62,1.94v11.18h10.48ZM563.55,10.59c.65.58.97,1.37.97,2.38v5.67c0,4.79-1.21,8.69-3.62,11.69-2.41,3.01-5.78,4.83-10.1,5.48v9.56c0,.97-.33,1.76-1,2.35-.67.59-1.54.89-2.62.89s-1.94-.29-2.59-.86c-.65-.58-.97-1.37-.97-2.38v-9.56c-4.36-.65-7.74-2.47-10.15-5.45-2.41-2.99-3.62-6.89-3.62-11.72v-5.67c0-1.01.32-1.8.97-2.38.65-.58,1.51-.86,2.59-.86s1.95.3,2.62.89c.67.59,1,1.38,1,2.35v5.83c0,3.74.87,6.62,2.62,8.61,1.75,2,4.26,3,7.53,3s5.79-1,7.53-3c1.75-2,2.62-4.87,2.62-8.61v-5.83c0-.97.33-1.75,1-2.35.67-.59,1.54-.89,2.62-.89s1.94.29,2.59.86Z"/>
</svg>